<svg width="104" height="22" viewBox="0 0 104 22" fill="none" xmlns="http://www.w3.org/2000/svg">
<path d="M5.358 8.846H10.07V15.23C9.576 15.496 8.98067 15.724 8.284 15.914C7.58733 16.0913 6.84 16.18 6.042 16.18C4.028 16.18 2.51433 15.534 1.501 14.242C0.500333 12.9373 0 11.3603 0 9.511C0 7.54767 0.57 5.92633 1.71 4.647C2.85 3.36767 4.39533 2.728 6.346 2.728C6.726 2.728 7.26433 2.79133 7.961 2.918C8.67033 3.04467 9.31 3.26 9.88 3.564L9.101 5.331C8.54367 5.16633 8.08767 5.03967 7.733 4.951C7.391 4.84967 6.94133 4.799 6.384 4.799C5.244 4.799 4.31933 5.19167 3.61 5.977C2.91333 6.74967 2.565 7.92133 2.565 9.492C2.565 10.9107 2.85 12.038 3.42 12.874C4.00267 13.6973 4.85767 14.109 5.985 14.109C6.403 14.109 6.764 14.09 7.068 14.052C7.372 14.0013 7.638 13.9507 7.866 13.9V10.746H5.149L5.358 8.846Z" fill="white"/>
<path d="M16.6298 16.142C15.1731 16.142 14.0331 15.705 13.2098 14.831C12.3991 13.9443 11.9938 12.76 11.9938 11.278C11.9938 9.80867 12.4181 8.637 13.2668 7.763C14.1281 6.889 15.2997 6.452 16.7817 6.452C18.3144 6.452 19.4988 6.908 20.3348 7.82C21.1834 8.71933 21.6078 9.90367 21.6078 11.373C21.6078 12.8423 21.1518 14.0077 20.2397 14.869C19.3277 15.7177 18.1244 16.142 16.6298 16.142ZM19.0618 11.373C19.0618 10.499 18.8654 9.815 18.4727 9.321C18.0928 8.81433 17.5481 8.561 16.8388 8.561C16.1168 8.561 15.5531 8.78267 15.1478 9.226C14.7424 9.66933 14.5398 10.347 14.5398 11.259C14.5398 12.171 14.7108 12.8613 15.0528 13.33C15.4074 13.7987 15.9458 14.033 16.6678 14.033C17.3771 14.033 17.9534 13.824 18.3968 13.406C18.8401 12.9753 19.0618 12.2977 19.0618 11.373Z" fill="white"/>
<path d="M28.8058 9.188C28.3624 8.98533 27.9508 8.83333 27.5708 8.732C27.1908 8.618 26.7854 8.561 26.3548 8.561C26.0381 8.561 25.7911 8.62433 25.6138 8.751C25.4491 8.865 25.3668 9.02967 25.3668 9.245C25.3668 9.397 25.4681 9.54267 25.6708 9.682C25.8861 9.82133 26.2281 9.97333 26.6968 10.138C27.4694 10.4167 28.1851 10.8093 28.8438 11.316C29.5024 11.81 29.8318 12.456 29.8318 13.254C29.8318 14.166 29.5024 14.8753 28.8438 15.382C28.1978 15.8887 27.2478 16.142 25.9938 16.142C25.6011 16.142 25.0754 16.066 24.4168 15.914C23.7708 15.762 23.2324 15.5213 22.8018 15.192L23.5428 13.406C23.9861 13.6087 24.4104 13.767 24.8158 13.881C25.2338 13.9823 25.6138 14.033 25.9558 14.033C26.4118 14.033 26.7601 13.9697 27.0008 13.843C27.2414 13.7163 27.3618 13.5517 27.3618 13.349C27.3618 13.0957 27.2414 12.8677 27.0008 12.665C26.7601 12.4623 26.3801 12.2787 25.8608 12.114C25.1261 11.8733 24.4294 11.5313 23.7708 11.088C23.1248 10.632 22.8018 10.024 22.8018 9.264C22.8018 8.39 23.1248 7.706 23.7708 7.212C24.4168 6.70533 25.2908 6.452 26.3928 6.452C26.7854 6.452 27.2921 6.53433 27.9128 6.699C28.5334 6.86367 29.0781 7.10433 29.5468 7.421L28.8058 9.188Z" fill="white"/>
<path d="M35.62 14.033C36.4686 14.033 37.064 13.729 37.406 13.121C37.748 12.5003 37.919 11.8733 37.919 11.24C37.919 10.518 37.767 9.872 37.463 9.302C37.159 8.732 36.5446 8.447 35.62 8.447C35.354 8.447 35.0753 8.49767 34.784 8.599C34.5053 8.68767 34.2393 8.81433 33.986 8.979V13.501C34.2393 13.653 34.5053 13.7797 34.784 13.881C35.0753 13.9823 35.354 14.033 35.62 14.033ZM31.535 6.699H32.789L33.321 7.383C33.739 7.06633 34.2266 6.813 34.784 6.623C35.3413 6.433 35.8353 6.338 36.266 6.338C37.6213 6.338 38.66 6.80667 39.382 7.744C40.104 8.68133 40.465 9.84667 40.465 11.24C40.465 12.6333 40.0913 13.7987 39.344 14.736C38.6093 15.6733 37.5833 16.142 36.266 16.142C35.9366 16.142 35.563 16.085 35.145 15.971C34.7396 15.857 34.3533 15.6987 33.986 15.496V19.885L31.535 20.075V6.699Z" fill="white"/>
<path d="M47.306 6.699L47.8 8.675C47.382 8.675 46.8943 8.79533 46.337 9.036C45.7923 9.27667 45.254 9.63133 44.722 10.1V15.914H42.252V6.699H43.544L44.361 8.048C44.741 7.71867 45.2033 7.41467 45.748 7.136C46.2927 6.84467 46.812 6.699 47.306 6.699Z" fill="white"/>
<path d="M53.1276 16.142C51.6709 16.142 50.5309 15.705 49.7076 14.831C48.8969 13.9443 48.4916 12.76 48.4916 11.278C48.4916 9.80867 48.9159 8.637 49.7646 7.763C50.6259 6.889 51.7976 6.452 53.2796 6.452C54.8122 6.452 55.9966 6.908 56.8326 7.82C57.6812 8.71933 58.1056 9.90367 58.1056 11.373C58.1056 12.8423 57.6496 14.0077 56.7376 14.869C55.8256 15.7177 54.6222 16.142 53.1276 16.142ZM55.5596 11.373C55.5596 10.499 55.3632 9.815 54.9706 9.321C54.5906 8.81433 54.0459 8.561 53.3366 8.561C52.6146 8.561 52.0509 8.78267 51.6456 9.226C51.2402 9.66933 51.0376 10.347 51.0376 11.259C51.0376 12.171 51.2086 12.8613 51.5506 13.33C51.9052 13.7987 52.4436 14.033 53.1656 14.033C53.8749 14.033 54.4512 13.824 54.8946 13.406C55.3379 12.9753 55.5596 12.2977 55.5596 11.373Z" fill="white"/>
<path d="M62.3586 15.914L58.8246 7.041L61.3706 6.699L63.4986 12.285L65.5126 6.699H68.1156L64.4866 15.914H62.3586Z" fill="white"/>
<path d="M73.9676 16.142C72.3716 16.142 71.1113 15.705 70.1866 14.831C69.2746 13.957 68.8186 12.7853 68.8186 11.316C68.8186 9.84667 69.2303 8.66867 70.0536 7.782C70.8896 6.89533 72.0233 6.452 73.4546 6.452C74.8986 6.452 75.9563 6.93333 76.6276 7.896C77.3116 8.846 77.6536 9.97333 77.6536 11.278V12.038H71.4406C71.5546 12.646 71.8333 13.1337 72.2766 13.501C72.7199 13.8557 73.3026 14.033 74.0246 14.033C74.4426 14.033 74.8163 13.9823 75.1456 13.881C75.4876 13.767 75.8803 13.6087 76.3236 13.406L77.0456 15.192C76.6149 15.5213 76.0893 15.762 75.4686 15.914C74.8606 16.066 74.3603 16.142 73.9676 16.142ZM75.3166 10.385C75.1899 9.76433 74.9619 9.30833 74.6326 9.017C74.3033 8.713 73.8916 8.561 73.3976 8.561C72.8909 8.561 72.4666 8.71933 72.1246 9.036C71.7826 9.34 71.5609 9.78967 71.4596 10.385H75.3166Z" fill="white"/>
<path d="M84.4161 6.699L84.9101 8.675C84.4921 8.675 84.0044 8.79533 83.4471 9.036C82.9024 9.27667 82.3641 9.63133 81.8321 10.1V15.914H79.3621V6.699H80.6541L81.4711 8.048C81.8511 7.71867 82.3134 7.41467 82.8581 7.136C83.4028 6.84467 83.9221 6.699 84.4161 6.699Z" fill="white"/>
<path d="M88.5657 2.5V10.062L92.5177 6.433L93.9047 8.181L91.3207 10.442L94.7027 15.914H91.8717L89.5537 12.019L88.5657 12.893V15.914H86.1147V2.709L88.5657 2.5Z" fill="white"/>
<path d="M97.6542 13.159C97.6542 13.425 97.7619 13.6657 97.9772 13.881C98.1925 14.0837 98.4775 14.185 98.8322 14.185C99.1742 14.185 99.5162 14.109 99.8582 13.957C100.213 13.805 100.549 13.577 100.865 13.273V11.867H99.0032C98.5725 11.867 98.2369 12 97.9962 12.266C97.7682 12.532 97.6542 12.8297 97.6542 13.159ZM98.8702 16.142C97.7429 16.142 96.9069 15.8697 96.3622 15.325C95.8175 14.7677 95.5452 14.0457 95.5452 13.159C95.5452 12.209 95.8682 11.4807 96.5142 10.974C97.1602 10.4673 98.0025 10.214 99.0412 10.214H100.846C100.834 9.74533 100.694 9.38433 100.428 9.131C100.175 8.865 99.8202 8.732 99.3642 8.732C98.9335 8.732 98.4649 8.79533 97.9582 8.922C97.4515 9.036 97.0272 9.17533 96.6852 9.34L96.0202 7.288C96.3749 7.04733 96.9132 6.851 97.6352 6.699C98.3699 6.53433 98.9335 6.452 99.3262 6.452C100.428 6.452 101.372 6.775 102.157 7.421C102.943 8.05433 103.335 8.865 103.335 9.853V15.914H102.062L101.454 15.135C101.112 15.401 100.707 15.6353 100.238 15.838C99.7822 16.0407 99.3262 16.142 98.8702 16.142Z" fill="white"/>
</svg>
