<svg width="17" height="16" viewBox="0 0 17 16" fill="none" xmlns="http://www.w3.org/2000/svg">
<path d="M5.76074 1.59772C5.76074 1.46711 5.81263 1.34184 5.90499 1.24947C5.99735 1.15711 6.12262 1.10522 6.25324 1.10522H10.1932C10.3239 1.10522 10.4491 1.15711 10.5415 1.24947C10.6339 1.34184 10.6857 1.46711 10.6857 1.59772C10.6857 1.72834 10.6339 1.85361 10.5415 1.94598C10.4491 2.03834 10.3239 2.09023 10.1932 2.09023H6.25324C6.12262 2.09023 5.99735 2.03834 5.90499 1.94598C5.81263 1.85361 5.76074 1.72834 5.76074 1.59772Z" fill="#181D25"/>
<path d="M8.22321 5.04517C8.09259 5.04517 7.96732 5.09705 7.87496 5.18942C7.7826 5.28178 7.73071 5.40705 7.73071 5.53767V9.47767C7.73071 9.60829 7.7826 9.73356 7.87496 9.82592C7.96732 9.91828 8.09259 9.97017 8.22321 9.97017C8.35383 9.97017 8.4791 9.91828 8.57146 9.82592C8.66383 9.73356 8.71571 9.60829 8.71571 9.47767V5.53767C8.71571 5.40705 8.66383 5.28178 8.57146 5.18942C8.4791 5.09705 8.35383 5.04517 8.22321 5.04517Z" fill="#181D25"/>
<path d="M14.1332 8.9852C14.1332 10.5526 13.5106 12.0559 12.4022 13.1642C11.2939 14.2725 9.79067 14.8952 8.22324 14.8952C6.65581 14.8952 5.15257 14.2725 4.04423 13.1642C2.93589 12.0559 2.31323 10.5526 2.31323 8.9852C2.31323 7.41777 2.93589 5.91454 4.04423 4.8062C5.15257 3.69785 6.65581 3.0752 8.22324 3.0752C9.79067 3.0752 11.2939 3.69785 12.4022 4.8062C13.5106 5.91454 14.1332 7.41777 14.1332 8.9852ZM13.1482 8.9852C13.1482 7.67901 12.6294 6.42631 11.7057 5.5027C10.7821 4.57908 9.52943 4.0602 8.22324 4.0602C6.91704 4.0602 5.66435 4.57908 4.74073 5.5027C3.81712 6.42631 3.29823 7.67901 3.29823 8.9852C3.29823 10.2914 3.81712 11.5441 4.74073 12.4677C5.66435 13.3913 6.91704 13.9102 8.22324 13.9102C9.52943 13.9102 10.7821 13.3913 11.7057 12.4677C12.6294 11.5441 13.1482 10.2914 13.1482 8.9852Z" fill="#181D25"/>
<path d="M13.102 2.72238C13.0566 2.67534 13.0022 2.63782 12.9421 2.61201C12.882 2.58619 12.8174 2.57261 12.752 2.57204C12.6866 2.57147 12.6218 2.58393 12.5613 2.6087C12.5007 2.63346 12.4457 2.67003 12.3995 2.71627C12.3533 2.76251 12.3167 2.8175 12.2919 2.87803C12.2672 2.93856 12.2547 3.00341 12.2553 3.0688C12.2558 3.1342 12.2694 3.19882 12.2952 3.25891C12.321 3.319 12.3586 3.37334 12.4056 3.41877L13.7876 4.80073C13.833 4.84777 13.8873 4.88529 13.9474 4.9111C14.0075 4.93691 14.0721 4.9505 14.1375 4.95106C14.2029 4.95163 14.2678 4.93917 14.3283 4.91441C14.3888 4.88964 14.4438 4.85307 14.4901 4.80683C14.5363 4.76059 14.5729 4.7056 14.5976 4.64508C14.6224 4.58455 14.6349 4.5197 14.6343 4.4543C14.6337 4.38891 14.6201 4.32428 14.5943 4.2642C14.5685 4.20411 14.531 4.14976 14.484 4.10433L13.102 2.72238Z" fill="#181D25"/>
</svg>
